<?xml version="1.0" encoding="utf-8"?>
<!-- Generator: Adobe Illustrator 20.0.0, SVG Export Plug-In . SVG Version: 6.00 Build 0)  -->
<svg version="1.1" id="Шар_1" width="136" height="24" xmlns="http://www.w3.org/2000/svg" xmlns:xlink="http://www.w3.org/1999/xlink" x="0px" y="0px"
	 viewBox="0 0 136 24" style="enable-background:new 0 0 136 24;" xml:space="preserve">
<style type="text/css">
	.st0{fill:#FFFFFF;}
	.st1{fill:#D4175C;}
</style>
<g>
	<path class="st0" d="M9.435504,3.5237617H2.8772178v2.5872202h5.415134v2.8078403h-5.415134v5.8562765H0.0694755V0.7159215
		H9.435504V3.5237617z"/>
	<path class="st0" d="M18.860384,11.9672585h5.2345638v2.7877665h-8.0424042V0.7159215h2.8078403V11.9672585z"/>
	<path class="st0" d="M39.9983063,12.1678047h-5.816227l-1.3235245,2.6072941H29.70965l7.1600208-14.0591774h0.8221626
		l6.6385803,14.0591774H41.221756L39.9983063,12.1678047z M38.6745872,9.3600626L37.21064,6.231329l-1.5843925,3.1287336H38.6745872
		z"/>
	<path class="st0" d="M61.2162323,14.7750988V6.1711063l-4.0312881,3.6702471L53.153656,6.1711063v8.6039925h-2.8078384V0.7159215
		h0.9627762l5.8763504,5.3349357l5.8563766-5.3349357H64.02388v14.0591774H61.2162323z"/>
	<path class="st0" d="M74.9531479,3.5237617v8.4434967h1.4841156v2.8078403h-5.7963486v-2.8078403h1.5042953V3.5237617h-1.5042953
		V0.7159215h5.7963486v2.8078403H74.9531479z"/>
	<path class="st0" d="M93.7645187,14.7750988l-7.9019852-8.2028027v8.2028027h-2.8078384V0.7159215h0.8824844l7.7617569,7.8619328
		V0.7159215h2.8076401v14.0591774H93.7645187z"/>
	<path class="st0" d="M135.9391174,7.7355223c0,4.011116-3.2690582,7.2802706-7.2801819,7.2802706
		c-4.0111084,0-7.280365-3.2691545-7.280365-7.2802706c0-4.0112143,3.2692566-7.2802715,7.280365-7.2802715
		C132.6700592,0.4552509,135.9391174,3.7243078,135.9391174,7.7355223z M124.2667084,7.7355223
		c0,2.4267244,1.9655075,4.3922319,4.3922272,4.3922319c2.4267273,0,4.3922424-1.9655075,4.3922424-4.3922319
		s-1.9655151-4.3922324-4.3922424-4.3922324C126.2322159,3.3432899,124.2667084,5.3087978,124.2667084,7.7355223z"/>
	<path class="st1" d="M115.3850327,7.5916367c0.0080643-1.6492167-0.5657883-3.2761316-1.6750488-4.6244316
		c-1.3183441-1.589594-3.2994232-2.6100116-5.524437-2.6323991c-4.031189-0.0401484-7.2602005,3.1687839-7.3003464,7.2000723
		c0,1.0630507,0.3409653,2.7876678,1.6446152,4.4323802h-1.3936386h-0.0102844v2.8078403h0.0102844h3.2690582h2.0247498h0.7830887
		v-2.8078403V8.6982021h-2.8078384v1.4172983c-0.4983444-0.732132-0.772316-1.5919323-0.772316-2.5003257V7.5548544
		c0-1.1833,0.4812851-2.3062792,1.3436966-3.148612c0.8423309-0.822356,1.9854813-1.2835727,3.1687851-1.2635963
		c1.1832962,0,2.3064728,0.4813886,3.1287308,1.3237212c0.780899,0.7808981,1.229126,1.8040085,1.2911224,2.8917966
		c0.002594,0.0708475,0.0069046,0.1414866,0.0060501,0.2127256c0,1.1912441-0.4679947,2.3116407-1.3047256,3.1483669
		l-0.0282516,0.0282507c-0.6524582,0.6240749-1.4324036,1.0353632-2.2974396,1.1912317l-0.0283279,2.83636
		c1.5598145-0.1701288,3.0773849-0.8367262,4.2969589-2.0278969l0.042511-0.042511
		c0.1835556-0.1835556,0.3541107-0.3751173,0.5140076-0.5724688c0.9826584-1.2232523,1.5995102-2.7522812,1.6195831-4.4569225
		V7.6151748C115.3856201,7.6072798,115.3850555,7.5995193,115.3850327,7.5916367z"/>
</g>
<g>
	<path class="st0" d="M20.5349483,22.7202091v-4.2719498h1.496357c0.5183449,0,0.9115047,0.099268,1.1794815,0.2978039
		c0.2679749,0.1985359,0.4019623,0.4894943,0.4019623,0.8728733c0,0.2092953-0.053791,0.3936501-0.1613731,0.5530663
		c-0.1075802,0.1594162-0.2572155,0.2762871-0.4489059,0.3506165c0.2190742,0.0547695,0.3916931,0.1652832,0.5178566,0.3315449
		c0.1261635,0.1662636,0.1892452,0.369688,0.1892452,0.6102791c0,0.4107647-0.1310539,0.7217731-0.3931599,0.9330235
		c-0.2621078,0.2112503-0.6357079,0.3188305-1.1208019,0.3227425H20.5349483z M21.4151573,20.238018h0.6513557
		c0.4440174-0.0078239,0.6660252-0.1848431,0.6660252-0.5310593c0-0.1936474-0.0562344-0.3330135-0.1687069-0.4181004
		c-0.1124706-0.0850868-0.2899799-0.1276302-0.532526-0.1276302h-0.616148V20.238018z M21.4151573,20.860033v1.1530743h0.7540474
		c0.2073383,0,0.3691998-0.0493889,0.4855824-0.1481686s0.1745739-0.2352104,0.1745739-0.4092979
		c0-0.3912029-0.2024479-0.5897388-0.6073437-0.5956078H21.4151573z"/>
	<path class="st0" d="M26.9400635,22.7202091h-0.8802109v-4.2719498h0.8802109V22.7202091z"/>
	<path class="st0" d="M33.4127808,23.7705936h-0.8127251v-1.0503845h-2.5760803v1.0474491h-0.8332653l-0.0469437-1.7545509
		h0.3227425c0.1740856-0.1447449,0.3085632-0.3574619,0.403429-0.6381512
		c0.0948677-0.2806892,0.1589279-0.6283722,0.1921806-1.0430489l0.1232281-1.8836479h2.7990665v3.5648479h0.4987869
		L33.4127808,23.7705936z M30.4758167,22.0131073h1.6283855v-2.8518791h-1.0826569l-0.0733509,1.1237354
		C30.8895149,21.0380306,30.7320557,21.6140785,30.4758167,22.0131073z"/>
	<path class="st0" d="M39.0579834,22.7202091H38.174839v-3.5589809h-1.7105408v3.5589809h-0.8802109v-4.2719498h3.473896V22.7202091
		z"/>
	<path class="st0" d="M44.973114,20.681057c0,0.4205456-0.0743294,0.7892551-0.2229881,1.1061306
		c-0.1486549,0.3168755-0.3613739,0.5613785-0.6381493,0.7335072c-0.2767792,0.1721306-0.5941429,0.2581959-0.952095,0.2581959
		c-0.3540382,0-0.6699371-0.0850868-0.9476929-0.2552605c-0.2777557-0.1701756-0.4929161-0.4132099-0.6454849-0.7291088
		c-0.1525726-0.315897-0.2298355-0.6792278-0.2317886-1.0899925v-0.2112503c0-0.4205437,0.0757942-0.7907219,0.2273865-1.1105309
		s0.3657761-0.5652905,0.6425514-0.7364426c0.2767792-0.1711521,0.5931664-0.2567272,0.9491615-0.2567272
		s0.6723824,0.0855751,0.9491577,0.2567272c0.2767792,0.1711521,0.490963,0.4166336,0.6425552,0.7364426
		c0.1515884,0.319809,0.2273865,0.6890087,0.2273865,1.1075974V20.681057z M44.0811691,20.4874115
		c0-0.4479294-0.0801964-0.7882767-0.240593-1.0210438c-0.1603928-0.2327671-0.3892479-0.3491497-0.6865616-0.3491497
		c-0.2953606,0-0.5232353,0.1149158-0.6836319,0.3447495c-0.1603928,0.2298317-0.2415657,0.5667572-0.2435226,1.0107727v0.2083168
		c0,0.4361935,0.0801964,0.7745838,0.2405891,1.0151749c0.1603966,0.240591,0.3912048,0.3608856,0.6924324,0.3608856
		c0.2953606,0,0.5222588-0.1158943,0.6806946-0.347683c0.1584396-0.2317886,0.238636-0.5696907,0.240593-1.0137081V20.4874115z"/>
	<path class="st0" d="M50.6565781,18.4482594v4.2719498h-0.8831444v-1.619585
		c-0.2679749,0.0567245-0.5476837,0.0850868-0.8391304,0.0850868c-0.5418205,0-0.9530716-0.1183395-1.2337608-0.3550186
		s-0.4249458-0.5789814-0.4327698-1.0269108v-1.3555222h0.8831406v1.3379173
		c0.0019569,0.244503,0.0611267,0.4205456,0.1775093,0.5281258c0.1163864,0.1075821,0.3183441,0.1613731,0.6058807,0.1613731
		c0.2914467,0,0.5711555-0.0283623,0.8391304-0.0850868v-1.9423294H50.6565781z"/>
	<path class="st0" d="M55.6210823,18.4482594h0.8831444v4.2719498h-0.8831444v-2.8372097l-1.7105408,2.8372097h-0.8802109
		v-4.2719498h0.8802109v2.8430767L55.6210823,18.4482594z"/>
	<path class="st0" d="M58.9014549,22.7202091v-4.2719498h1.4963531c0.5183487,0,0.9115067,0.099268,1.1794815,0.2978039
		s0.4019623,0.4894943,0.4019623,0.8728733c0,0.2092953-0.053791,0.3936501-0.1613693,0.5530663
		c-0.1075821,0.1594162-0.2572174,0.2762871-0.4489098,0.3506165c0.2190742,0.0547695,0.3916931,0.1652832,0.5178566,0.3315449
		c0.1261635,0.1662636,0.1892471,0.369688,0.1892471,0.6102791c0,0.4107647-0.1310539,0.7217731-0.3931618,0.9330235
		s-0.6357079,0.3188305-1.1208,0.3227425H58.9014549z M59.781662,20.238018h0.6513557
		c0.4440155-0.0078239,0.6660271-0.1848431,0.6660271-0.5310593c0-0.1936474-0.0562363-0.3330135-0.1687088-0.4181004
		s-0.289978-0.1276302-0.5325279-0.1276302H59.781662V20.238018z M59.781662,20.860033v1.1530743h0.7540474
		c0.2073364,0,0.3691978-0.0493889,0.4855804-0.1481686c0.1163864-0.0987797,0.1745758-0.2352104,0.1745758-0.4092979
		c0-0.3912029-0.202446-0.5897388-0.6073456-0.5956078H59.781662z"/>
	<path class="st0" d="M66.7825089,21.8400002h-1.5433044l-0.2934036,0.880209h-0.9359512l1.5902405-4.2719498h0.8156662
		l1.5990448,4.2719498h-0.9359589L66.7825089,21.8400002z M65.47686,21.1270294h1.0679932l-0.5369263-1.5990467L65.47686,21.1270294
		z"/>
	<path class="st0" d="M72.6097412,18.4482594h0.8828964v4.2719498h-0.8828964v-2.8372097l-1.7105408,2.8372097h-0.8802109
		v-4.2719498h0.8802109v2.8430767L72.6097412,18.4482594z M72.7799149,17.3274574
		c0,0.2592964-0.093399,0.4688339-0.2801971,0.6287403c-0.1868057,0.1597824-0.4317932,0.2397346-0.7349777,0.2397346
		s-0.5481796-0.0789757-0.7349777-0.2368011c-0.1867981-0.1579494-0.2801971-0.3684654-0.2801971-0.6316738h0.6014786
		c0,0.12323,0.0366745,0.218586,0.1100235,0.2860699c0.073349,0.067482,0.1745758,0.101223,0.3036728,0.101223
		c0.1271439,0,0.2268982-0.033741,0.2992706-0.101223c0.0723724-0.0674839,0.1085587-0.1628399,0.1085587-0.2860699H72.7799149z"/>
	<path class="st0" d="M80.9954453,22.7202091V21.179842H80.279541l-0.7716446,1.5403671h-0.9506302l0.9124832-1.8220329
		c-0.4401016-0.242548-0.6601562-0.6190815-0.6601562-1.1296024c0-0.4185886,0.1369247-0.7423115,0.4107666-0.9711647
		c0.2738419-0.2288551,0.6562424-0.3452377,1.1472092-0.3491497h1.5110245v4.2719498H80.9954453z M79.6898041,19.8331223
		c0,0.2386341,0.0581894,0.4117413,0.1745758,0.5193233c0.1163864,0.1075802,0.2909546,0.1613712,0.5237274,0.1613712h0.607338
		v-1.3525887h-0.607338C79.9225693,19.1612282,79.6898041,19.3851929,79.6898041,19.8331223z"/>
	<path class="st0" d="M87.5943298,21.2972031c-0.0332489,0.4596653-0.2029343,0.8215294-0.5090561,1.0855923
		c-0.3061142,0.2640629-0.7095413,0.3960953-1.2102814,0.3960953c-0.5476913,0-0.9785004-0.1843548-1.2924423-0.5530663
		c-0.313942-0.3687096-0.4709167-0.8748302-0.4709167-1.5183601v-0.2611294c0-0.4107647,0.0723724-0.7726288,0.2171173-1.0855923
		s0.3516006-0.5530643,0.6205521-0.7203045s0.5814285-0.2508602,0.9374237-0.2508602
		c0.4929123,0,0.8899918,0.1320324,1.1912155,0.3960953s0.4753113,0.6347275,0.5222549,1.1119976h-0.8802032
		c-0.0215225-0.2757988-0.0982971-0.4758034-0.2303238-0.6000099c-0.1320343-0.1242065-0.3330154-0.1863117-0.6029434-0.1863117
		c-0.2934036,0-0.51297,0.1051369-0.6586914,0.3154087c-0.1457214,0.2102737-0.2205429,0.5364399-0.2244568,0.9785004v0.3227425
		c0,0.4616222,0.069931,0.799036,0.2097855,1.0122414c0.1398544,0.2132072,0.3603973,0.3198109,0.6616287,0.3198109
		c0.2718811,0,0.474823-0.0621052,0.6088104-0.1863117s0.210762-0.3163872,0.2303162-0.5765381H87.5943298z"/>
	<path class="st0" d="M91.2002563,20.9744606h-0.5075836v1.7457485h-0.8802109v-4.2719498h0.8802109v1.7105408h0.4019623
		l1.0445099-1.7105408h1.0738602l-1.3173828,2.0215473l1.4552765,2.2504025h-1.0503769L91.2002563,20.9744606z"/>
	<path class="st0" d="M96.2030258,21.2150517v1.5051575h-0.8802109v-4.2719498h1.6665344
		c0.3207855,0,0.6029434,0.0586796,0.8464661,0.1760406s0.4308167,0.2841129,0.5618668,0.5002537
		c0.1310501,0.2161388,0.196579,0.4621086,0.196579,0.7379093c0,0.4185867-0.14328,0.7486668-0.4298325,0.9902344
		c-0.2865601,0.2415695-0.6831436,0.3623543-1.1897507,0.3623543H96.2030258z M96.2030258,20.5020809h0.7863235
		c0.2327652,0,0.4102707-0.0547676,0.5325241-0.1643047c0.1222534-0.109539,0.1833801-0.2660198,0.1833801-0.4694462
		c0-0.2092934-0.061615-0.3784904-0.184845-0.5075874s-0.2934036-0.1956024-0.5105209-0.1995144h-0.8068619V20.5020809z"/>
	<path class="st0" d="M102.7226868,21.8400002H101.17939l-0.2934036,0.880209h-0.9359589l1.5902481-4.2719498h0.8156586
		l1.5990524,4.2719498h-0.9359589L102.7226868,21.8400002z M101.4170456,21.1270294h1.0679855l-0.5369263-1.5990467
		L101.4170456,21.1270294z"/>
	<path class="st0" d="M105.988266,22.7202091v-4.2719498h1.4963608c0.5183411,0,0.9115067,0.099268,1.1794815,0.2978039
		s0.4019623,0.4894943,0.4019623,0.8728733c0,0.2092953-0.0537949,0.3936501-0.161377,0.5530663
		s-0.2572174,0.2762871-0.4489059,0.3506165c0.2190781,0.0547695,0.3916931,0.1652832,0.5178604,0.3315449
		c0.1261597,0.1662636,0.1892395,0.369688,0.1892395,0.6102791c0,0.4107647-0.1310501,0.7217731-0.393158,0.9330235
		s-0.635704,0.3188305-1.1207962,0.3227425H105.988266z M106.8684769,20.238018h0.6513596
		c0.4440155-0.0078239,0.6660233-0.1848431,0.6660233-0.5310593c0-0.1936474-0.0562363-0.3330135-0.1687088-0.4181004
		s-0.289978-0.1276302-0.5325241-0.1276302h-0.6161499V20.238018z M106.8684769,20.860033v1.1530743h0.7540436
		c0.2073441,0,0.3692017-0.0493889,0.4855881-0.1481686c0.1163788-0.0987797,0.1745758-0.2352104,0.1745758-0.4092979
		c0-0.3912029-0.2024536-0.5897388-0.6073456-0.5956078H106.8684769z"/>
	<path class="st0" d="M114.9666519,20.681057c0,0.4205456-0.0743332,0.7892551-0.2229843,1.1061306
		c-0.1486588,0.3168755-0.3613815,0.5613785-0.6381531,0.7335072c-0.2767792,0.1721306-0.5941467,0.2581959-0.952095,0.2581959
		c-0.3540421,0-0.6699371-0.0850868-0.9476929-0.2552605c-0.2777557-0.1701756-0.4929199-0.4132099-0.6454849-0.7291088
		c-0.1525726-0.315897-0.2298355-0.6792278-0.2317886-1.0899925v-0.2112503c0-0.4205437,0.0757904-0.7907219,0.2273865-1.1105309
		c0.1515884-0.319809,0.3657761-0.5652905,0.6425552-0.7364426c0.2767715-0.1711521,0.5931625-0.2567272,0.9491577-0.2567272
		s0.6723785,0.0855751,0.9491577,0.2567272s0.4909592,0.4166336,0.6425552,0.7364426
		c0.1515884,0.319809,0.2273865,0.6890087,0.2273865,1.1075974V20.681057z M114.074707,20.4874115
		c0-0.4479294-0.0802002-0.7882767-0.240593-1.0210438s-0.3892517-0.3491497-0.6865616-0.3491497
		c-0.2953644,0-0.5232391,0.1149158-0.6836319,0.3447495c-0.1603928,0.2298317-0.2415695,0.5667572-0.2435226,1.0107727v0.2083168
		c0,0.4361935,0.0801926,0.7745838,0.240593,1.0151749c0.1603928,0.240591,0.3911972,0.3608856,0.6924286,0.3608856
		c0.2953568,0,0.5222549-0.1158943,0.6806946-0.347683s0.2386322-0.5696907,0.240593-1.0137081V20.4874115z"/>
</g>
</svg>
